<svg width="173" height="40" viewBox="0 0 173 40" fill="none" xmlns="http://www.w3.org/2000/svg">
<path d="M50.6294 2.32653V0.78125H39.979V2.32653H45.1231L37.2983 30.1416L29.8358 2.32653H34.4727V0.78125H20.8518V2.32653H25.054L17.3017 30.1416L9.83915 2.32653H14.4761V0.78125H0.927612V2.32653H4.33284L14.4036 39.7812H16.1424L25.5611 6.15295L25.7785 4.902L34.4002 39.7812H36.0666L46.6445 2.32653H50.6294ZM54.5418 10.2001C49.0354 10.2001 45.7751 13.6586 45.7751 20.1341V25.6529C45.7751 32.0548 49.0354 35.5869 54.5418 35.5869C60.0481 35.5869 63.236 32.1284 63.3084 25.6529V20.1341C63.236 13.7322 60.0481 10.2001 54.5418 10.2001ZM58.9613 28.4492C58.9613 33.7473 57.5123 34.5567 54.4693 34.5567C51.4988 34.5567 49.9773 33.7473 49.9773 28.5963V17.2643C49.9773 12.0397 51.4988 11.3039 54.4693 11.3039C57.5123 11.3039 58.9613 12.1133 58.9613 17.4114V28.4492ZM104.171 9.75861H102.795L95.332 34.0416H93.0135V35.0718H100.041V34.0416H96.7086L99.027 26.6831H105.403L107.431 34.0416H104.751V35.0718H113.228V34.0416H110.909L104.171 9.75861ZM99.2444 25.6529L102.215 16.0133H102.432L105.041 25.6529H99.2444ZM89.3185 33.968V11.3039H91.637V10.2737H85.1163L78.2334 29.9209L71.7128 10.2737H65.2646V11.3039H67.5106V33.968H65.337V34.9982H72.1475V33.968H68.9596V12.4812L76.6395 35.8077H77.7263L85.7684 12.702V33.968H83.305V34.9982H91.9268V33.968C91.8543 33.968 90.6951 33.968 89.3185 33.968ZM126.414 11.3039H129.891V27.6397L119.748 10.2737H113.807V11.3039H115.908V33.968H113.807V34.9982H120.545V33.968H116.995V13.4379L129.891 35.5133H130.978V11.2303H133.297V10.2001H126.414V11.3039ZM135.832 28.2284C134.528 28.2284 133.514 29.4058 133.514 30.8775C133.514 32.3492 134.528 33.5265 135.832 33.5265C137.137 33.5265 138.151 32.3492 138.151 30.8775C138.151 29.4058 137.064 28.2284 135.832 28.2284ZM152.641 14.836C152.641 14.7624 152.569 14.7624 152.569 14.6888C152.424 14.5416 152.351 14.3945 152.206 14.3209C151.917 14.1001 151.41 13.9529 150.757 13.9529C149.019 13.9529 148.149 14.836 147.425 16.0133C146.918 16.8228 146.41 17.8529 146.048 18.4416C146.048 18.0737 145.976 17.4114 145.541 16.3813C145.034 14.9831 144.527 14.468 144.454 14.468H140.324V15.4982H142.933V31.8341H140.324V32.8643H149.743V31.8341H145.976V20.5756C146.41 19.5454 146.99 18.2209 147.932 16.8228C148.874 15.6454 149.381 15.2775 149.888 15.2775C150.105 15.2775 150.105 16.3813 150.105 16.8963C150.105 16.9699 150.105 17.0435 150.105 17.1171C150.105 17.1907 150.105 17.1907 150.105 17.1907C150.105 19.5454 150.83 20.2077 151.627 20.2077C152.496 20.2077 153.148 19.619 153.148 17.1907C153.221 16.3077 153.003 15.4246 152.641 14.836ZM170.827 31.9077C170.392 31.9077 170.319 31.3926 170.319 31.3926V14.468H167.204V28.3756C167.131 28.4492 165.175 32.3492 162.35 32.3492C160.901 32.3492 160.466 31.5397 160.466 30.6567V14.468H154.67V15.4982H157.423V29.0379C157.423 29.0379 157.278 33.3794 161.987 33.3794C165.175 33.3794 166.914 30.436 167.276 29.9209V29.9945C167.204 31.6869 167.784 32.7907 168.653 32.7907H173V31.7605L170.827 31.9077Z" fill="#18284D"/>
</svg>
